<?xml version="1.0" encoding="UTF-8"?>
<!DOCTYPE svg PUBLIC "-//W3C//DTD SVG 1.1//EN" "http://www.w3.org/Graphics/SVG/1.1/DTD/svg11.dtd">
<svg xmlns="http://www.w3.org/2000/svg" version="1.1" viewBox="0 0 250 250" style="shape-rendering:geometricPrecision; text-rendering:geometricPrecision; image-rendering:optimizeQuality; fill-rule:evenodd; clip-rule:evenodd" xmlns:xlink="http://www.w3.org/1999/xlink">
<g><path style="opacity:0.873" fill="#17345c" d="M 121.5,-0.5 C 123.5,-0.5 125.5,-0.5 127.5,-0.5C 163.369,12.2077 195.036,31.7077 222.5,58C 232.109,67.7664 241.109,77.933 249.5,88.5C 249.5,97.8333 249.5,107.167 249.5,116.5C 244.299,159.93 229.132,199.597 204,235.5C 203.097,236.701 201.931,237.535 200.5,238C 183.996,243.129 167.329,246.962 150.5,249.5C 133.167,249.5 115.833,249.5 98.5,249.5C 80.4711,247.09 62.8045,242.756 45.5,236.5C 20.3107,200.592 4.9774,160.925 -0.5,117.5C -0.5,107.833 -0.5,98.1667 -0.5,88.5C 31.2425,46.6261 71.9091,16.9594 121.5,-0.5 Z"/></g>
<g><path style="opacity:1" fill="#f5c810" d="M 122.5,4.5 C 172.044,20.2058 212.544,48.8725 244,90.5C 245.031,137.72 232.698,181.053 207,220.5C 204.343,224.98 201.177,228.98 197.5,232.5C 148.485,248.445 99.4851,248.445 50.5,232.5C 19.2981,190.377 4.13146,143.043 5,90.5C 35.8962,50.4236 75.0629,21.7569 122.5,4.5 Z"/></g>
<g><path style="opacity:1" fill="#1a355b" d="M 135.5,32.5 C 136.5,32.5 137.5,32.5 138.5,32.5C 135.628,50.9918 134.628,50.9918 135.5,32.5 Z"/></g>
<g><path style="opacity:1" fill="#2a3c58" d="M 147.5,34.5 C 148.822,34.33 149.989,34.6634 151,35.5C 151.346,38.5755 152.012,41.5755 153,44.5C 154.185,42.6228 155.185,40.6228 156,38.5C 157.156,37.0072 157.99,37.1739 158.5,39C 157.421,43.5984 155.587,47.765 153,51.5C 152.055,51.0946 151.388,50.428 151,49.5C 150.324,39.2057 148.491,38.5391 145.5,47.5C 145.167,47.8333 144.833,48.1667 144.5,48.5C 144.205,43.6766 145.205,39.01 147.5,34.5 Z"/></g>
<g><path style="opacity:1" fill="#20385a" d="M 117.5,31.5 C 120.187,31.3359 122.854,31.5026 125.5,32C 126.731,33.1827 126.731,34.3493 125.5,35.5C 123.827,33.9137 121.827,33.2471 119.5,33.5C 119.351,34.552 119.517,35.552 120,36.5C 122.175,37.2546 124.341,38.088 126.5,39C 128.129,45.6938 125.463,48.0272 118.5,46C 117.313,44.9805 116.313,43.8139 115.5,42.5C 116,42.1667 116.5,41.8333 117,41.5C 118.667,42.5 120.333,43.5 122,44.5C 123.5,44.3333 124.333,43.5 124.5,42C 122.161,40.2824 119.661,38.7824 117,37.5C 116.322,35.4024 116.489,33.4024 117.5,31.5 Z"/></g>
<g><path style="opacity:1" fill="#263b59" d="M 166.5,42.5 C 177.674,44.7056 179.341,49.8723 171.5,58C 167.324,58.586 163.658,57.4194 160.5,54.5C 162.963,50.7114 164.963,46.7114 166.5,42.5 Z"/></g>
<g><path style="opacity:1" fill="#e3bd1a" d="M 168.5,45.5 C 174.837,48.6919 174.837,52.3586 168.5,56.5C 166.77,55.9744 165.436,54.9744 164.5,53.5C 165.847,50.8068 167.18,48.1401 168.5,45.5 Z"/></g>
<g><path style="opacity:1" fill="#2a3d58" d="M 90.5,36.5 C 92.8273,36.2471 94.8273,36.9137 96.5,38.5C 95.4618,40.7644 93.9618,41.0978 92,39.5C 90.7202,39.6135 89.8869,40.2801 89.5,41.5C 92.1071,42.3184 94.7737,42.8184 97.5,43C 101.695,46.7946 101.028,49.7946 95.5,52C 93.765,52.6514 92.0983,52.4847 90.5,51.5C 89.1667,50.5 89.1667,49.5 90.5,48.5C 92.4325,49.5202 94.4325,49.6869 96.5,49C 97.3366,47.9887 97.67,46.8221 97.5,45.5C 94.4816,45.6646 91.4816,45.498 88.5,45C 85.6144,41.3741 86.2811,38.5407 90.5,36.5 Z"/></g>
<g><path style="opacity:1" fill="#253959" d="M 72.5,46.5 C 77.0728,49.0592 81.4061,52.0592 85.5,55.5C 84.1448,58.0386 82.6448,58.0386 81,55.5C 79.7753,55.8623 78.6086,56.3623 77.5,57C 77.05,59.5006 76.05,61.6672 74.5,63.5C 73.0902,58.6947 71.7568,53.8613 70.5,49C 71.0556,47.9889 71.7222,47.1556 72.5,46.5 Z"/></g>
<g><path style="opacity:1" fill="#c7aa25" d="M 73.5,50.5 C 77.3695,51.2867 78.0362,52.9534 75.5,55.5C 74.438,53.9783 73.7713,52.3117 73.5,50.5 Z"/></g>
<g><path style="opacity:1" fill="#2d3e57" d="M 60.5,55.5 C 61.3764,55.3691 62.0431,55.7025 62.5,56.5C 61.6171,57.548 60.9504,58.7147 60.5,60C 63.3273,62.6612 65.9939,65.4946 68.5,68.5C 68.1924,69.3081 67.6924,69.9747 67,70.5C 63.9671,67.8255 60.9671,65.1589 58,62.5C 56.7147,62.9504 55.548,63.6171 54.5,64.5C 54.1667,64.1667 53.8333,63.8333 53.5,63.5C 55.8558,60.8136 58.1891,58.147 60.5,55.5 Z"/></g>
<g><path style="opacity:1" fill="#21395a" d="M 186.5,57.5 C 188.665,57.1159 190.332,57.7826 191.5,59.5C 189.59,64.3174 187.424,68.9841 185,73.5C 184.308,72.9747 183.808,72.3081 183.5,71.5C 184.975,68.7546 184.309,66.588 181.5,65C 180.101,64.4054 178.768,64.5721 177.5,65.5C 176.692,65.1924 176.025,64.6924 175.5,64C 179.23,61.807 182.897,59.6404 186.5,57.5 Z"/></g>
<g><path style="opacity:1" fill="#cfb021" d="M 186.5,60.5 C 187.712,62.2637 187.379,63.9303 185.5,65.5C 184.5,65.1667 183.833,64.5 183.5,63.5C 184.34,62.265 185.34,61.265 186.5,60.5 Z"/></g>
<g><path style="opacity:1" fill="#14335d" d="M 106.5,67.5 C 107.833,67.5 109.167,67.5 110.5,67.5C 110.5,69.8333 110.5,72.1667 110.5,74.5C 110.242,78.4402 109.076,82.1069 107,85.5C 101.808,92.5382 96.1411,99.2049 90,105.5C 82.7825,114.735 82.7825,124.068 90,133.5C 97.3333,142.167 104.667,150.833 112,159.5C 113.193,161.886 114.36,164.22 115.5,166.5C 115.987,167.473 116.487,168.473 117,169.5C 117.5,155.837 117.667,142.171 117.5,128.5C 120.167,128.5 122.833,128.5 125.5,128.5C 124.847,146.199 125.514,163.532 127.5,180.5C 126.855,181.812 125.855,182.812 124.5,183.5C 121.459,181.441 118.459,179.441 115.5,177.5C 117.256,176.448 117.923,174.781 117.5,172.5C 116.5,172.5 115.5,172.5 114.5,172.5C 108.351,170.548 102.017,169.382 95.5,169C 96.8333,167.667 98.1667,166.333 99.5,165C 75.3038,164.808 61.8038,152.641 59,128.5C 58.3333,123.167 58.3333,117.833 59,112.5C 59.8061,115.446 61.1395,118.112 63,120.5C 63.1358,112.438 63.8025,104.438 65,96.5C 66.1811,92.1555 68.6811,88.8221 72.5,86.5C 72.1866,89.2469 72.52,91.9135 73.5,94.5C 74.1067,94.3764 74.44,94.0431 74.5,93.5C 80.1611,78.6698 90.8278,70.0032 106.5,67.5 Z"/></g>
<g><path style="opacity:1" fill="#13335d" d="M 142.5,67.5 C 158.301,70.5749 169.301,79.5749 175.5,94.5C 176.777,91.9659 176.777,89.4659 175.5,87C 177.745,87.1953 179.578,88.3619 181,90.5C 183.479,94.1229 184.812,98.1229 185,102.5C 185.333,108.5 185.667,114.5 186,120.5C 187.861,118.112 189.194,115.446 190,112.5C 191.039,124.225 189.373,135.558 185,146.5C 177.061,159.833 165.227,166 149.5,165C 150.833,166.333 152.167,167.667 153.5,169C 146.034,169.461 138.701,170.627 131.5,172.5C 131.5,171.167 131.5,169.833 131.5,168.5C 132.906,168.027 133.573,167.027 133.5,165.5C 140.407,155.752 147.907,146.419 156,137.5C 160.333,132.003 163.166,125.836 164.5,119C 164.422,113.763 162.589,109.263 159,105.5C 152.924,100.095 147.591,94.0947 143,87.5C 140.398,83.5262 138.898,79.1929 138.5,74.5C 138.5,72.1667 138.5,69.8333 138.5,67.5C 139.833,67.5 141.167,67.5 142.5,67.5 Z"/></g>
<g><path style="opacity:0.992" fill="#8b8234" d="M 106.5,67.5 C 107.919,66.5489 109.585,66.2155 111.5,66.5C 111.806,69.3854 111.473,72.0521 110.5,74.5C 110.5,72.1667 110.5,69.8333 110.5,67.5C 109.167,67.5 107.833,67.5 106.5,67.5 Z"/></g>
<g><path style="opacity:0.996" fill="#74743b" d="M 142.5,67.5 C 141.167,67.5 139.833,67.5 138.5,67.5C 138.5,69.8333 138.5,72.1667 138.5,74.5C 137.527,72.0521 137.194,69.3854 137.5,66.5C 139.415,66.2155 141.081,66.5489 142.5,67.5 Z"/></g>
<g><path style="opacity:1" fill="#263a59" d="M 47.5,69.5 C 51.9331,72.0845 56.2664,74.9178 60.5,78C 59.4071,79.3654 58.0738,79.6987 56.5,79C 53.6667,76.8333 50.8333,74.6667 48,72.5C 47.5172,71.552 47.3505,70.552 47.5,69.5 Z"/></g>
<g><path style="opacity:0.996" fill="#a4942a" d="M 117.5,73.5 C 117.823,79.69 117.49,85.69 116.5,91.5C 115.833,91.5 115.5,91.1667 115.5,90.5C 116.167,84.8333 116.833,79.1667 117.5,73.5 Z"/></g>
<g><path style="opacity:1" fill="#a3aeb6" d="M 117.5,73.5 C 119.833,73.5 122.167,73.5 124.5,73.5C 124.5,73.8333 124.5,74.1667 124.5,74.5C 122.5,74.5 120.5,74.5 118.5,74.5C 118.83,80.8682 118.496,87.2015 117.5,93.5C 116.702,93.0431 116.369,92.3764 116.5,91.5C 117.49,85.69 117.823,79.69 117.5,73.5 Z"/></g>
<g><path style="opacity:1" fill="#f8f9f9" d="M 124.5,74.5 C 124.799,76.604 124.466,78.604 123.5,80.5C 122.096,79.0011 121.43,79.3344 121.5,81.5C 121.868,83.1753 122.868,84.1753 124.5,84.5C 124.169,92.5277 124.502,100.528 125.5,108.5C 126.107,108.376 126.44,108.043 126.5,107.5C 127.147,108.274 127.48,109.274 127.5,110.5C 127.66,112.355 126.993,113.688 125.5,114.5C 124.515,118.634 124.182,122.968 124.5,127.5C 122.5,127.5 120.5,127.5 118.5,127.5C 118.827,117.985 118.494,108.652 117.5,99.5C 117.167,99.5 116.833,99.5 116.5,99.5C 112.686,96.8479 111.519,93.1813 113,88.5C 113.708,89.3805 114.542,90.0472 115.5,90.5C 115.5,91.1667 115.833,91.5 116.5,91.5C 116.369,92.3764 116.702,93.0431 117.5,93.5C 118.496,87.2015 118.83,80.8682 118.5,74.5C 120.5,74.5 122.5,74.5 124.5,74.5 Z"/></g>
<g><path style="opacity:1" fill="#18365f" d="M 124.5,73.5 C 126.833,73.5 129.167,73.5 131.5,73.5C 131.334,78.5111 131.501,83.5111 132,88.5C 134.412,84.648 135.579,84.8146 135.5,89C 135.605,91.1782 134.939,93.0115 133.5,94.5C 132.883,94.6107 132.383,94.944 132,95.5C 131.5,104.16 131.334,112.827 131.5,121.5C 129.5,121.5 127.5,121.5 125.5,121.5C 125.5,119.167 125.5,116.833 125.5,114.5C 126.993,113.688 127.66,112.355 127.5,110.5C 127.48,109.274 127.147,108.274 126.5,107.5C 125.833,99.8333 125.167,92.1667 124.5,84.5C 122.868,84.1753 121.868,83.1753 121.5,81.5C 121.43,79.3344 122.096,79.0011 123.5,80.5C 124.466,78.604 124.799,76.604 124.5,74.5C 124.5,74.1667 124.5,73.8333 124.5,73.5 Z"/></g>
<g><path style="opacity:1" fill="#21385a" d="M 199.5,70.5 C 201.252,70.4176 202.252,71.2509 202.5,73C 200.322,75.8728 199.156,79.0395 199,82.5C 200.833,81.3333 202.667,80.1667 204.5,79C 205.635,78.2506 206.635,78.4173 207.5,79.5C 203.795,82.5256 199.795,85.1923 195.5,87.5C 194.5,87.1667 193.833,86.5 193.5,85.5C 195.039,82.2544 196.706,79.0877 198.5,76C 195.933,76.6956 193.433,77.8623 191,79.5C 190.5,79.1667 190,78.8333 189.5,78.5C 192.864,75.8249 196.197,73.1582 199.5,70.5 Z"/></g>
<g><path style="opacity:1" fill="#263a59" d="M 49.5,93.5 C 48.209,93.7373 47.209,93.404 46.5,92.5C 49.7466,91.7594 51.2466,89.7594 51,86.5C 50.2825,85.5494 49.4491,85.3828 48.5,86C 42.4592,92.7464 39.2925,91.913 39,83.5C 40.6052,80.7265 42.7719,80.0598 45.5,81.5C 44.4825,82.8524 43.1492,83.8524 41.5,84.5C 40.1207,85.8626 40.2874,86.8626 42,87.5C 44.1124,86.392 45.9458,84.892 47.5,83C 52.9919,82.5141 54.8253,85.0141 53,90.5C 52.5776,92.4257 51.4109,93.4257 49.5,93.5 Z"/></g>
<g><path style="opacity:1" fill="#5d738d" d="M 124.5,84.5 C 125.167,92.1667 125.833,99.8333 126.5,107.5C 126.44,108.043 126.107,108.376 125.5,108.5C 124.502,100.528 124.169,92.5277 124.5,84.5 Z"/></g>
<g><path style="opacity:0.996" fill="#988b30" d="M 72.5,86.5 C 73.1667,88.8333 73.8333,91.1667 74.5,93.5C 74.44,94.0431 74.1067,94.3764 73.5,94.5C 72.52,91.9135 72.1866,89.2469 72.5,86.5 Z"/></g>
<g><path style="opacity:1" fill="#2c3e57" d="M 205.5,90.5 C 212.568,90.2614 215.734,93.5947 215,100.5C 214.29,101.973 213.124,102.64 211.5,102.5C 214.212,96.0661 212.212,93.2328 205.5,94C 202.542,96.1277 201.876,98.7944 203.5,102C 204.448,102.483 205.448,102.649 206.5,102.5C 207.034,97.334 208.034,97.334 209.5,102.5C 207.957,105.253 205.624,106.087 202.5,105C 197.818,98.9082 198.818,94.0749 205.5,90.5 Z"/></g>
<g><path style="opacity:0.996" fill="#686c40" d="M 46.5,92.5 C 47.209,93.404 48.209,93.7373 49.5,93.5C 48.2918,94.782 46.9584,94.782 45.5,93.5C 45.6236,92.8933 45.9569,92.56 46.5,92.5 Z"/></g>
<g><path style="opacity:0.996" fill="#c4a81f" d="M 133.5,94.5 C 132.182,118.294 132.182,141.961 133.5,165.5C 133.573,167.027 132.906,168.027 131.5,168.5C 131.5,152.833 131.5,137.167 131.5,121.5C 131.334,112.827 131.5,104.16 132,95.5C 132.383,94.944 132.883,94.6107 133.5,94.5 Z"/></g>
<g><path style="opacity:0.996" fill="#a2932a" d="M 116.5,99.5 C 116.833,99.5 117.167,99.5 117.5,99.5C 117.5,109.167 117.5,118.833 117.5,128.5C 117.667,142.171 117.5,155.837 117,169.5C 116.487,168.473 115.987,167.473 115.5,166.5C 116.497,144.34 116.831,122.006 116.5,99.5 Z"/></g>
<g><path style="opacity:1" fill="#2e3e57" d="M 34.5,98.5 C 37.7916,98.1196 40.1249,99.4529 41.5,102.5C 43.1667,101.833 44.8333,101.167 46.5,100.5C 46.8333,101 47.1667,101.5 47.5,102C 45.486,103.678 43.3193,105.178 41,106.5C 40.5172,107.448 40.3505,108.448 40.5,109.5C 42.1667,109.5 43.8333,109.5 45.5,109.5C 45.5,110.5 45.5,111.5 45.5,112.5C 40.3385,112.251 35.3385,111.251 30.5,109.5C 30.8903,105.428 32.2237,101.761 34.5,98.5 Z"/></g>
<g><path style="opacity:1" fill="#d7b523" d="M 35.5,101.5 C 37.7224,101.559 38.7224,102.725 38.5,105C 38.5765,107.756 37.2431,108.923 34.5,108.5C 34.298,106.05 34.6314,103.717 35.5,101.5 Z"/></g>
<g><path style="opacity:1" fill="#12325d" d="M 31.5,119.5 C 31.5,122.167 31.5,124.833 31.5,127.5C 32.8333,127.5 34.1667,127.5 35.5,127.5C 35.5,124.833 35.5,122.167 35.5,119.5C 36.1667,119.5 36.8333,119.5 37.5,119.5C 37.5,122.167 37.5,124.833 37.5,127.5C 39.1667,127.5 40.8333,127.5 42.5,127.5C 42.5,124.833 42.5,122.167 42.5,119.5C 42.8333,119.5 43.1667,119.5 43.5,119.5C 43.5,122.833 43.5,126.167 43.5,129.5C 38.8333,129.5 34.1667,129.5 29.5,129.5C 28.931,125.671 29.5977,122.337 31.5,119.5 Z"/></g>
<g><path style="opacity:0.996" fill="#aa9729" d="M 31.5,119.5 C 32.1653,121.698 32.8319,124.031 33.5,126.5C 34.1681,124.031 34.8347,121.698 35.5,119.5C 35.5,122.167 35.5,124.833 35.5,127.5C 34.1667,127.5 32.8333,127.5 31.5,127.5C 31.5,124.833 31.5,122.167 31.5,119.5 Z"/></g>
<g><path style="opacity:1" fill="#f9fafb" d="M 127.5,180.5 C 125.514,163.532 124.847,146.199 125.5,128.5C 125.5,126.5 125.5,124.5 125.5,122.5C 127.167,122.5 128.833,122.5 130.5,122.5C 130.833,141.179 130.5,159.845 129.5,178.5C 128.478,178.855 127.811,179.522 127.5,180.5 Z"/></g>
<g><path style="opacity:1" fill="#a2adb3" d="M 117.5,99.5 C 118.494,108.652 118.827,117.985 118.5,127.5C 120.5,127.5 122.5,127.5 124.5,127.5C 124.182,122.968 124.515,118.634 125.5,114.5C 125.5,116.833 125.5,119.167 125.5,121.5C 127.5,121.5 129.5,121.5 131.5,121.5C 131.5,137.167 131.5,152.833 131.5,168.5C 131.5,169.833 131.5,171.167 131.5,172.5C 131.5,173.833 131.5,175.167 131.5,176.5C 135.986,174.594 140.653,173.26 145.5,172.5C 139.538,175.145 133.538,177.812 127.5,180.5C 127.811,179.522 128.478,178.855 129.5,178.5C 130.5,159.845 130.833,141.179 130.5,122.5C 128.833,122.5 127.167,122.5 125.5,122.5C 125.5,124.5 125.5,126.5 125.5,128.5C 122.833,128.5 120.167,128.5 117.5,128.5C 117.5,118.833 117.5,109.167 117.5,99.5 Z"/></g>
<g><path style="opacity:1" fill="#263b59" d="M 204.5,122.5 C 209.5,122.5 214.5,122.5 219.5,122.5C 219.5,123.5 219.5,124.5 219.5,125.5C 217.473,125.338 215.473,125.505 213.5,126C 215.333,127.833 217.167,129.667 219,131.5C 219.749,132.635 219.583,133.635 218.5,134.5C 216.826,133.12 215.16,131.787 213.5,130.5C 210.3,131.531 207.467,133.198 205,135.5C 204.333,134.167 204.333,132.833 205,131.5C 207.25,130.292 209.417,128.959 211.5,127.5C 211.291,126.914 210.957,126.414 210.5,126C 208.527,125.505 206.527,125.338 204.5,125.5C 204.5,124.5 204.5,123.5 204.5,122.5 Z"/></g>
<g><path style="opacity:0.996" fill="#9f902e" d="M 37.5,119.5 C 38.4682,121.607 38.8016,123.941 38.5,126.5C 39.5,126.5 40.5,126.5 41.5,126.5C 41.1984,123.941 41.5318,121.607 42.5,119.5C 42.5,122.167 42.5,124.833 42.5,127.5C 40.8333,127.5 39.1667,127.5 37.5,127.5C 37.5,124.833 37.5,122.167 37.5,119.5 Z"/></g>
<g><path style="opacity:0.996" fill="#3a4d4f" d="M 43.5,119.5 C 44.4816,122.962 44.815,126.629 44.5,130.5C 39.3054,130.821 34.3054,130.487 29.5,129.5C 34.1667,129.5 38.8333,129.5 43.5,129.5C 43.5,126.167 43.5,122.833 43.5,119.5 Z"/></g>
<g><path style="opacity:1" fill="#22385a" d="M 30.5,138.5 C 35.5157,139.058 40.5157,139.725 45.5,140.5C 45.762,141.978 45.4287,143.311 44.5,144.5C 40.9934,146.754 37.3267,148.754 33.5,150.5C 32.1667,149.5 32.1667,148.5 33.5,147.5C 43.8577,143.067 42.8577,141.067 30.5,141.5C 30.5,140.5 30.5,139.5 30.5,138.5 Z"/></g>
<g><path style="opacity:1" fill="#2d3e57" d="M 203.5,139.5 C 208.579,142.079 212.912,145.579 216.5,150C 216.355,150.772 216.022,151.439 215.5,152C 210.492,152.501 205.492,153.001 200.5,153.5C 200.5,152.5 200.5,151.5 200.5,150.5C 201.833,150.5 203.167,150.5 204.5,150.5C 204.62,148.801 204.954,147.135 205.5,145.5C 204.349,143.675 203.682,141.675 203.5,139.5 Z"/></g>
<g><path style="opacity:1" fill="#d6b51f" d="M 207.5,146.5 C 213.764,148.386 213.764,149.386 207.5,149.5C 207.5,148.5 207.5,147.5 207.5,146.5 Z"/></g>
<g><path style="opacity:1" fill="#293c58" d="M 47.5,153.5 C 49.4646,153.948 49.7979,154.948 48.5,156.5C 44.2457,158.464 39.9124,160.131 35.5,161.5C 35.281,160.325 35.6143,159.325 36.5,158.5C 40.3761,157.058 44.0428,155.391 47.5,153.5 Z"/></g>
<g><path style="opacity:1" fill="#2b3d58" d="M 197.5,159.5 C 203.853,159.819 204.02,161.153 198,163.5C 197.51,164.793 197.343,166.127 197.5,167.5C 198.552,167.649 199.552,167.483 200.5,167C 203.825,161.358 207.158,161.191 210.5,166.5C 209.65,171.391 206.983,173.391 202.5,172.5C 203.518,171.148 204.851,170.148 206.5,169.5C 207.645,168.109 207.645,166.776 206.5,165.5C 204.684,166.815 203.017,168.315 201.5,170C 197.492,171.416 195.159,170.082 194.5,166C 194.84,163.489 195.84,161.322 197.5,159.5 Z"/></g>
<g><path style="opacity:1" fill="#75807d" d="M 104.5,173.5 C 99.154,172.998 93.8206,172.332 88.5,171.5C 87.0755,171.623 85.7421,171.957 84.5,172.5C 85.6936,171.223 87.3603,170.556 89.5,170.5C 94.8028,170.678 99.8028,171.678 104.5,173.5 Z"/></g>
<g><path style="opacity:1" fill="#6e7b7b" d="M 163.5,171.5 C 157.828,171.76 152.161,172.093 146.5,172.5C 152.11,170.638 157.777,170.304 163.5,171.5 Z"/></g>
<g><path style="opacity:1" fill="#eef0f2" d="M 104.5,173.5 C 107.916,173.528 110.916,174.528 113.5,176.5C 113.842,177.338 114.508,177.672 115.5,177.5C 118.459,179.441 121.459,181.441 124.5,183.5C 125.855,182.812 126.855,181.812 127.5,180.5C 133.538,177.812 139.538,175.145 145.5,172.5C 145.833,172.5 146.167,172.5 146.5,172.5C 152.161,172.093 157.828,171.76 163.5,171.5C 164.338,171.842 164.672,172.508 164.5,173.5C 164.414,174.496 164.748,175.329 165.5,176C 160.981,176.175 156.647,176.675 152.5,177.5C 141.804,178.12 132.304,181.787 124,188.5C 119.363,184.764 114.196,181.93 108.5,180C 99.7826,177.937 91.1159,176.437 82.5,175.5C 82.427,173.973 83.0937,172.973 84.5,172.5C 85.7421,171.957 87.0755,171.623 88.5,171.5C 93.8206,172.332 99.154,172.998 104.5,173.5 Z"/></g>
<g><path style="opacity:1" fill="#21385a" d="M 51.5,162.5 C 52.5862,162.62 53.2528,163.287 53.5,164.5C 51.9851,167.831 50.8184,171.164 50,174.5C 52.2503,173.292 54.417,171.959 56.5,170.5C 57.3081,170.808 57.9747,171.308 58.5,172C 54.6682,174.75 50.6682,177.25 46.5,179.5C 45.2801,179.113 44.6135,178.28 44.5,177C 46.0338,174.101 47.7005,171.267 49.5,168.5C 49.1667,168.167 48.8333,167.833 48.5,167.5C 46.3295,169.086 43.9962,170.42 41.5,171.5C 41.1667,171 40.8333,170.5 40.5,170C 43.8561,166.993 47.5228,164.493 51.5,162.5 Z"/></g>
<g><path style="opacity:0.996" fill="#888244" d="M 114.5,172.5 C 115.5,172.5 116.5,172.5 117.5,172.5C 117.923,174.781 117.256,176.448 115.5,177.5C 114.508,177.672 113.842,177.338 113.5,176.5C 114.5,176.5 115.5,176.5 116.5,176.5C 116.473,174.801 115.806,173.467 114.5,172.5 Z"/></g>
<g><path style="opacity:1" fill="#697b8a" d="M 164.5,173.5 C 165.695,173.866 166.361,174.699 166.5,176C 165.571,177.077 164.904,178.244 164.5,179.5C 160.827,177.682 156.827,177.016 152.5,177.5C 156.647,176.675 160.981,176.175 165.5,176C 164.748,175.329 164.414,174.496 164.5,173.5 Z"/></g>
<g><path style="opacity:1" fill="#203a60" d="M 82.5,175.5 C 91.1159,176.437 99.7826,177.937 108.5,180C 114.196,181.93 119.363,184.764 124,188.5C 132.304,181.787 141.804,178.12 152.5,177.5C 156.827,177.016 160.827,177.682 164.5,179.5C 165.043,179.56 165.376,179.893 165.5,180.5C 163.604,181.466 161.604,181.799 159.5,181.5C 154.566,181.229 149.9,181.896 145.5,183.5C 139.047,184.651 133.047,186.985 127.5,190.5C 126.614,191.325 126.281,192.325 126.5,193.5C 113.145,185.323 98.4787,181.156 82.5,181C 83.1667,180 83.8333,179 84.5,178C 83.376,177.751 82.376,177.251 81.5,176.5C 81.6236,175.893 81.9569,175.56 82.5,175.5 Z"/></g>
<g><path style="opacity:1" fill="#2b3d57" d="M 60.5,179.5 C 68.4535,180.091 70.6202,183.758 67,190.5C 64.9835,192.684 62.8169,194.684 60.5,196.5C 59.5,196.167 58.8333,195.5 58.5,194.5C 61.0536,192.292 63.5536,189.959 66,187.5C 66.7235,184.875 65.7235,183.208 63,182.5C 60.2162,184.28 57.7162,186.447 55.5,189C 54.365,189.749 53.365,189.583 52.5,188.5C 55.189,185.48 57.8556,182.48 60.5,179.5 Z"/></g>
<g><path style="opacity:1" fill="#bba22a" d="M 159.5,181.5 C 155.081,182.972 150.414,183.638 145.5,183.5C 149.9,181.896 154.566,181.229 159.5,181.5 Z"/></g>
<g><path style="opacity:1" fill="#233a59" d="M 188.5,173.5 C 193.565,175.751 197.398,179.085 200,183.5C 199.667,183.833 199.333,184.167 199,184.5C 196.167,182.333 193.333,180.167 190.5,178C 188.963,176.89 188.297,175.39 188.5,173.5 Z"/></g>
<g><path style="opacity:1" fill="#263a59" d="M 182.5,180.5 C 183.239,180.369 183.906,180.536 184.5,181C 187.382,184.593 190.382,188.093 193.5,191.5C 193,191.833 192.5,192.167 192,192.5C 190.3,191.073 188.467,190.24 186.5,190C 183.006,191.75 182.839,193.584 186,195.5C 186.749,196.635 186.583,197.635 185.5,198.5C 181.833,195.5 178.5,192.167 175.5,188.5C 176,188.167 176.5,187.833 177,187.5C 178.667,188.5 180.333,189.5 182,190.5C 183.261,190.241 184.261,189.574 185,188.5C 184.516,185.802 183.683,183.135 182.5,180.5 Z"/></g>
<g><path style="opacity:1" fill="#213a59" d="M 97.5,212.5 C 98.7773,213.694 99.4439,215.36 99.5,217.5C 99.3333,219.167 99.1667,220.833 99,222.5C 96.482,224.028 94.3153,223.694 92.5,221.5C 94.0026,220.948 95.6693,220.948 97.5,221.5C 97.5,218.5 97.5,215.5 97.5,212.5 Z"/></g>
<g><path style="opacity:0.996" fill="#75743d" d="M 162.5,215.5 C 162.44,216.043 162.107,216.376 161.5,216.5C 160.719,215.271 160.219,213.938 160,212.5C 159.501,216.152 159.335,219.818 159.5,223.5C 158.517,219.702 158.183,215.702 158.5,211.5C 159.5,211.5 160.5,211.5 161.5,211.5C 161.232,213.099 161.566,214.432 162.5,215.5 Z"/></g>
<g><path style="opacity:0.996" fill="#837e37" d="M 123.5,212.5 C 126.287,211.523 129.287,211.19 132.5,211.5C 132.5,212.5 132.5,213.5 132.5,214.5C 129.918,214.025 127.918,214.692 126.5,216.5C 125.596,215.791 125.263,214.791 125.5,213.5C 127.527,213.662 129.527,213.495 131.5,213C 128.854,212.503 126.187,212.336 123.5,212.5 Z"/></g>
<g><path style="opacity:1" fill="#304056" d="M 148.5,212.5 C 150.527,212.338 152.527,212.505 154.5,213C 154.957,213.414 155.291,213.914 155.5,214.5C 153.641,214.112 151.641,214.112 149.5,214.5C 148.231,216.695 148.231,218.861 149.5,221C 150.944,221.781 152.277,221.614 153.5,220.5C 152.833,219.833 152.167,219.167 151.5,218.5C 153.045,217.548 154.712,217.215 156.5,217.5C 156.562,222.984 153.895,224.817 148.5,223C 144.552,219.422 144.552,215.922 148.5,212.5 Z"/></g>
<g><path style="opacity:1" fill="#2b3d58" d="M 162.5,215.5 C 167.494,211.323 168.161,211.656 164.5,216.5C 165.833,218.5 167.167,220.5 168.5,222.5C 168,222.833 167.5,223.167 167,223.5C 165.498,221.825 163.998,220.159 162.5,218.5C 161.999,220.655 160.999,222.322 159.5,223.5C 159.335,219.818 159.501,216.152 160,212.5C 160.219,213.938 160.719,215.271 161.5,216.5C 162.107,216.376 162.44,216.043 162.5,215.5 Z"/></g>
<g><path style="opacity:1" fill="#2e3e57" d="M 84.5,212.5 C 85.8221,212.33 86.9887,212.663 88,213.5C 89.1667,216.5 90.3333,219.5 91.5,222.5C 91.1667,222.833 90.8333,223.167 90.5,223.5C 87.5063,220.943 84.5063,220.943 81.5,223.5C 81.1667,223.167 80.8333,222.833 80.5,222.5C 82.0355,219.222 83.3689,215.889 84.5,212.5 Z"/></g>
<g><path style="opacity:0.992" fill="#9c8e2f" d="M 85.5,215.5 C 87.1042,216.287 87.7709,217.62 87.5,219.5C 86.325,219.719 85.325,219.386 84.5,218.5C 85.1272,217.583 85.4606,216.583 85.5,215.5 Z"/></g>
<g><path style="opacity:1" fill="#344255" d="M 105.5,212.5 C 106.675,212.281 107.675,212.614 108.5,213.5C 109.559,216.618 110.892,219.618 112.5,222.5C 112,222.833 111.5,223.167 111,223.5C 108.115,220.915 105.282,220.915 102.5,223.5C 102.418,219.717 103.418,216.05 105.5,212.5 Z"/></g>
<g><path style="opacity:0.996" fill="#978b33" d="M 106.5,215.5 C 109.347,217.798 109.013,219.131 105.5,219.5C 105.433,218.041 105.766,216.708 106.5,215.5 Z"/></g>
<g><path style="opacity:1" fill="#2d3e57" d="M 173.5,212.5 C 174.675,212.281 175.675,212.614 176.5,213.5C 178.396,216.827 179.396,220.16 179.5,223.5C 176.5,220.833 173.5,220.833 170.5,223.5C 170.167,223.167 169.833,222.833 169.5,222.5C 170.849,219.141 172.182,215.808 173.5,212.5 Z"/></g>
<g><path style="opacity:0.996" fill="#9a8d30" d="M 174.5,215.5 C 177.347,217.798 177.013,219.131 173.5,219.5C 173.433,218.041 173.766,216.708 174.5,215.5 Z"/></g>
<g><path style="opacity:1" fill="#2f4056" d="M 72.5,216.5 C 73.032,219.46 73.6987,219.793 74.5,217.5C 75.038,215.883 75.3713,214.216 75.5,212.5C 76.8333,212.5 78.1667,212.5 79.5,212.5C 80.0803,216.649 79.4136,220.316 77.5,223.5C 77.6641,220.813 77.4974,218.146 77,215.5C 76.5899,216.901 76.0899,218.234 75.5,219.5C 75.3718,221.09 74.7051,222.423 73.5,223.5C 72.3764,221.631 71.5431,219.631 71,217.5C 70.8078,219.577 70.3078,221.577 69.5,223.5C 68.5108,219.893 68.1774,216.226 68.5,212.5C 71.142,212.488 72.4754,213.821 72.5,216.5 Z"/></g>
<g><path style="opacity:0.996" fill="#8c8332" d="M 77.5,223.5 C 76.8333,222.167 76.1667,220.833 75.5,219.5C 76.0899,218.234 76.5899,216.901 77,215.5C 77.4974,218.146 77.6641,220.813 77.5,223.5 Z"/></g>
<g><path style="opacity:0.996" fill="#7e7b38" d="M 72.5,216.5 C 73.1667,216.833 73.8333,217.167 74.5,217.5C 73.6987,219.793 73.032,219.46 72.5,216.5 Z"/></g>
<g><path style="opacity:1" fill="#233c58" d="M 134.5,212.5 C 137.385,213.545 139.552,215.545 141,218.5C 141.192,216.423 141.692,214.423 142.5,212.5C 143.833,216.167 143.833,219.833 142.5,223.5C 140.196,221.569 138.362,219.236 137,216.5C 136.814,218.9 136.314,221.234 135.5,223.5C 134.511,219.893 134.177,216.226 134.5,212.5 Z"/></g>
<g><path style="opacity:1" fill="#444c50" d="M 113.5,212.5 C 114.5,212.5 115.5,212.5 116.5,212.5C 116.5,215.5 116.5,218.5 116.5,221.5C 118.604,221.201 120.604,221.534 122.5,222.5C 119.572,223.484 116.572,223.817 113.5,223.5C 113.5,219.833 113.5,216.167 113.5,212.5 Z"/></g>
<g><path style="opacity:1" fill="#304155" d="M 123.5,212.5 C 126.187,212.336 128.854,212.503 131.5,213C 129.527,213.495 127.527,213.662 125.5,213.5C 125.263,214.791 125.596,215.791 126.5,216.5C 128.288,216.215 129.955,216.548 131.5,217.5C 129.604,218.466 127.604,218.799 125.5,218.5C 125.5,219.5 125.5,220.5 125.5,221.5C 127.924,221.192 130.257,221.526 132.5,222.5C 129.572,223.484 126.572,223.817 123.5,223.5C 123.5,219.833 123.5,216.167 123.5,212.5 Z"/></g>
</svg>
